<?xml version="1.0" encoding="utf-8"?>
<!-- Generator: Adobe Illustrator 28.2.0, SVG Export Plug-In . SVG Version: 6.00 Build 0)  -->
<svg version="1.1" id="Layer_1" xmlns="http://www.w3.org/2000/svg" xmlns:xlink="http://www.w3.org/1999/xlink" x="0px" y="0px"
	 viewBox="0 0 16 16" style="enable-background:new 0 0 16 16;" xml:space="preserve">
<style type="text/css">
	.st0{fill:#FFC52F;}
</style>
<path class="st0" d="M16,6.2c-0.1-0.3-0.3-0.5-0.6-0.5L10.7,5L8.7,0.9c-0.2-0.4-0.6-0.5-1-0.4C7.5,0.6,7.4,0.8,7.3,0.9L5.3,5
	L0.7,5.6C0.4,5.7,0.1,5.9,0,6.2C0,6.5,0,6.8,0.2,7l3.3,3.2l-0.8,4.4c-0.1,0.3,0.1,0.6,0.3,0.8c0.2,0.2,0.5,0.2,0.8,0.1L8,13.3
	l4.1,2.1c0.1,0.1,0.2,0.1,0.3,0.1c0.2,0,0.3,0,0.4-0.1c0.2-0.2,0.4-0.5,0.3-0.8l-0.8-4.4L15.8,7C16,6.8,16,6.5,16,6.2z M5.1,10
	c0-0.3,0-0.5-0.2-0.7L2.5,7l3.4-0.5c0.2,0,0.5-0.2,0.6-0.4L8,3l1.6,3.1c0.1,0.2,0.3,0.4,0.6,0.4L13.5,7l-2.4,2.3
	c-0.2,0.2-0.3,0.5-0.2,0.7l0.6,3.3l-3.1-1.6c-0.1-0.1-0.2-0.1-0.3-0.1s-0.2,0-0.3,0.1l-3.1,1.6L5.1,10z"/>
</svg>
